<svg width="158" height="69" viewBox="0 0 158 69" fill="none" xmlns="http://www.w3.org/2000/svg">
<path d="M90.6138 66.6603C77.5735 50.8376 91.9601 43.3817 78.2037 25.1151L86.667 18.7497L94.8331 48.4006C94.9786 48.8613 95.1241 49.3099 95.2696 49.7464C95.4151 50.1829 95.5243 50.5466 95.597 50.8376C95.6455 50.5951 95.7304 50.2557 95.8516 49.8192C95.9729 49.3827 96.1184 48.9098 96.2881 48.4006L107.012 16.9311H118.215L100.435 66.6603H90.6138Z" fill="#1DB954"/>
<path d="M120.717 66.6605V16.9313H156.509V26.8613H131.193V36.6094H145.633V46.5394H131.193V57.8516H158V66.6605H120.717ZM124.136 12.2027L134.539 0.854126H143.887L154.217 12.2027H145.16L139.231 7.29226L133.193 12.2027H124.136Z" fill="#1DB954"/>
<path d="M17.9139 66.5582L0 17.4496L11.3668 17.4495L22.1332 48.2987C22.2787 48.7594 22.4242 49.208 22.5697 49.6445C22.7152 50.081 22.8243 50.4447 22.8971 50.7357C22.9456 50.4932 23.0304 50.1537 23.1517 49.7172C23.2729 49.2808 23.4184 48.8079 23.5882 48.2987L33.6456 21.8149L38.1301 22.3872L44.5577 23.2965C34.5526 37.8464 39.0993 38.7189 27.7348 66.5582H17.9139Z" fill="white"/>
<path d="M62.7445 68.1458C57.2884 68.1458 53.1039 68.086 50.2425 66.5583C48.2431 65.5029 45.0527 64.1797 41.7674 60.7608C39.0394 58.0328 38.1301 54.3955 37.2207 51.6675C36.3114 48.9394 36.3114 45.739 36.3114 45.739V43.4838C36.3114 43.4838 37.3918 38.7189 38.1301 36.2087C38.8683 33.6985 39.9488 30.7526 42.6768 27.1153C45.4048 23.4779 48.8983 21.7352 51.1598 20.2443C54.0212 18.6923 57.2263 18.0228 60.8636 18.0223C64.501 18.0219 68.9386 18.6923 71.7757 20.2443C74.6129 21.772 77.2318 23.5455 79.3346 26.5701C81.1048 29.1163 82.6878 31.6624 83.5971 35.2998C84.5065 38.9371 84.5065 38.9372 84.5065 43.4838C84.5065 48.0305 82.7373 53.2526 82.6878 53.4866C82.6382 53.7205 80.022 59.5252 78.2033 61.7804C76.3846 64.0357 73.0488 65.6839 72.1394 66.1566C71.2301 66.6294 68.2005 68.1458 62.7445 68.1458ZM61.2274 60.6522C63.3613 60.6522 65.1557 60.1551 66.6106 59.1609C68.0898 58.1666 69.278 56.8572 70.1753 55.2325C71.0725 53.5836 71.7272 51.8134 72.1394 49.922C72.5517 48.0306 72.7578 46.1997 72.7578 44.4296C72.7578 42.5381 72.5638 40.6346 72.1758 38.7189C71.7878 36.8032 71.1452 35.0452 70.248 33.4447C69.375 31.8443 68.199 30.5591 66.7198 29.5891C65.2406 28.6192 63.4098 28.1342 61.2274 28.1342C59.045 28.1342 57.2142 28.6434 55.735 29.6619C54.2558 30.6561 53.0675 31.9656 52.1703 33.5902C51.2731 35.2149 50.6305 36.9851 50.2425 38.9008C49.8545 40.8164 49.6605 42.6594 49.6605 44.4296C49.6605 46.2967 49.8545 48.1882 50.2425 50.1038C50.6547 51.9953 51.3095 53.7412 52.2067 55.3416C53.1281 56.9421 54.3285 58.2273 55.8077 59.1972C57.2869 60.1672 59.0935 60.6522 61.2274 60.6522Z" fill="white"/>
<ellipse cx="61.6532" cy="44.2117" rx="7.27472" ry="10.0027" fill="#1DB954"/>
</svg>
