<svg width="130" height="35" viewBox="0 0 130 35" fill="none" xmlns="http://www.w3.org/2000/svg">
<ellipse cx="10.868" cy="15.6575" rx="10.868" ry="15.6575" transform="matrix(0.999904 0.0138569 -0.0131707 0.999913 27.4121 1)" fill="white"/>
<ellipse cx="8.51814" cy="12.2721" rx="8.51814" ry="12.2721" transform="matrix(0.999904 0.0138569 -0.0131707 0.999913 29.7173 4.41772)" fill="#6C6C6C"/>
<ellipse cx="2.1257" cy="2.34682" rx="2.1257" ry="2.34682" transform="matrix(0.999904 0.0138569 -0.0131707 0.999913 33.2314 12.153)" fill="#E1E1E1"/>
<ellipse cx="10.868" cy="15.6575" rx="10.868" ry="15.6575" transform="matrix(0.999904 0.0138569 -0.0131707 0.999913 27.4126 1)" fill="white"/>
<ellipse cx="8.51814" cy="12.2721" rx="8.51814" ry="12.2721" transform="matrix(0.999904 0.0138569 -0.0131707 0.999913 29.7178 4.41772)" fill="#6C6C6C"/>
<ellipse cx="2.1257" cy="2.34682" rx="2.1257" ry="2.34682" transform="matrix(0.999904 0.0138569 -0.0131707 0.999913 33.2319 12.153)" fill="#E1E1E1"/>
<ellipse cx="10.868" cy="15.6575" rx="10.868" ry="15.6575" transform="matrix(0.999904 0.0138569 -0.0131707 0.999913 54.4126 1.99951)" fill="white"/>
<ellipse cx="8.51814" cy="12.2721" rx="8.51814" ry="12.2721" transform="matrix(0.999904 0.0138569 -0.0131707 0.999913 56.7178 5.41724)" fill="#6C6C6C"/>
<ellipse cx="2.1257" cy="2.34682" rx="2.1257" ry="2.34682" transform="matrix(0.999904 0.0138569 -0.0131707 0.999913 60.2319 13.1525)" fill="#E1E1E1"/>
<ellipse cx="10.868" cy="15.6575" rx="10.868" ry="15.6575" transform="matrix(0.999904 0.0138569 -0.0131707 0.999913 81.4116 1)" fill="white"/>
<ellipse cx="8.51814" cy="12.2721" rx="8.51814" ry="12.2721" transform="matrix(0.999904 0.0138569 -0.0131707 0.999913 83.7168 4.41772)" fill="#6C6C6C"/>
<ellipse cx="2.1257" cy="2.34682" rx="2.1257" ry="2.34682" transform="matrix(0.999904 0.0138569 -0.0131707 0.999913 87.2305 12.153)" fill="#E1E1E1"/>
<ellipse cx="10.868" cy="15.6575" rx="10.868" ry="15.6575" transform="matrix(0.999904 0.0138569 -0.0131707 0.999913 107.412 1)" fill="white"/>
<ellipse cx="8.51814" cy="12.2721" rx="8.51814" ry="12.2721" transform="matrix(0.999904 0.0138569 -0.0131707 0.999913 109.717 4.41772)" fill="#6C6C6C"/>
<ellipse cx="2.1257" cy="2.34682" rx="2.1257" ry="2.34682" transform="matrix(0.999904 0.0138569 -0.0131707 0.999913 113.231 12.153)" fill="#E1E1E1"/>
<ellipse cx="10.868" cy="15.6575" rx="10.868" ry="15.6575" transform="matrix(0.999904 0.0138569 -0.0131707 0.999913 0.412598 1)" fill="white"/>
<ellipse cx="8.51814" cy="12.2721" rx="8.51814" ry="12.2721" transform="matrix(0.999904 0.0138569 -0.0131707 0.999913 2.71777 4.41772)" fill="#1DB954"/>
<ellipse cx="2.1257" cy="2.34682" rx="2.1257" ry="2.34682" transform="matrix(0.999904 0.0138569 -0.0131707 0.999913 6.23193 12.153)" fill="#E1E1E1"/>
</svg>
