<svg width="127" height="32" viewBox="0 0 127 32" fill="none" xmlns="http://www.w3.org/2000/svg">
<ellipse cx="10.868" cy="15.6575" rx="10.868" ry="15.6575" transform="matrix(0.999904 0.0138569 -0.0131707 0.999913 0.412598 0)" fill="white"/>
<ellipse cx="8.51814" cy="12.2721" rx="8.51814" ry="12.2721" transform="matrix(0.999904 0.0138569 -0.0131707 0.999913 2.71777 3.41772)" fill="#6C6C6C"/>
<ellipse cx="2.1257" cy="2.34682" rx="2.1257" ry="2.34682" transform="matrix(0.999904 0.0138569 -0.0131707 0.999913 6.23193 11.153)" fill="#E1E1E1"/>
<ellipse cx="10.868" cy="15.6575" rx="10.868" ry="15.6575" transform="matrix(0.999904 0.0138569 -0.0131707 0.999913 26.5586 0)" fill="white"/>
<ellipse cx="8.51814" cy="12.2721" rx="8.51814" ry="12.2721" transform="matrix(0.999904 0.0138569 -0.0131707 0.999913 28.8638 3.41772)" fill="#6C6C6C"/>
<ellipse cx="2.1257" cy="2.34682" rx="2.1257" ry="2.34682" transform="matrix(0.999904 0.0138569 -0.0131707 0.999913 32.3779 11.153)" fill="#E1E1E1"/>
<ellipse cx="10.868" cy="15.6575" rx="10.868" ry="15.6575" transform="matrix(0.999904 0.0138569 -0.0131707 0.999913 52.7051 0)" fill="white"/>
<ellipse cx="8.51814" cy="12.2721" rx="8.51814" ry="12.2721" transform="matrix(0.999904 0.0138569 -0.0131707 0.999913 55.0103 3.41772)" fill="#6C6C6C"/>
<ellipse cx="2.1257" cy="2.34682" rx="2.1257" ry="2.34682" transform="matrix(0.999904 0.0138569 -0.0131707 0.999913 58.5244 11.153)" fill="#E1E1E1"/>
<ellipse cx="10.868" cy="15.6575" rx="10.868" ry="15.6575" transform="matrix(0.999904 0.0138569 -0.0131707 0.999913 78.8516 0)" fill="white"/>
<ellipse cx="8.51814" cy="12.2721" rx="8.51814" ry="12.2721" transform="matrix(0.999904 0.0138569 -0.0131707 0.999913 81.1567 3.41772)" fill="#6C6C6C"/>
<ellipse cx="2.1257" cy="2.34682" rx="2.1257" ry="2.34682" transform="matrix(0.999904 0.0138569 -0.0131707 0.999913 84.6709 11.153)" fill="#E1E1E1"/>
<ellipse cx="10.868" cy="15.6575" rx="10.868" ry="15.6575" transform="matrix(0.999904 0.0138569 -0.0131707 0.999913 104.998 0)" fill="white"/>
<ellipse cx="8.51814" cy="12.2721" rx="8.51814" ry="12.2721" transform="matrix(0.999904 0.0138569 -0.0131707 0.999913 107.303 3.41772)" fill="#6C6C6C"/>
<ellipse cx="2.1257" cy="2.34682" rx="2.1257" ry="2.34682" transform="matrix(0.999904 0.0138569 -0.0131707 0.999913 110.817 11.153)" fill="#E1E1E1"/>
</svg>
