<svg width="132" height="35" viewBox="0 0 132 35" fill="none" xmlns="http://www.w3.org/2000/svg">
<ellipse cx="10.868" cy="15.6575" rx="10.868" ry="15.6575" transform="matrix(0.999904 0.0138569 -0.0131707 0.999913 56.4121 1.73364)" fill="white"/>
<ellipse cx="8.51814" cy="12.2721" rx="8.51814" ry="12.2721" transform="matrix(0.999904 0.0138569 -0.0131707 0.999913 58.7173 5.15137)" fill="#6C6C6C"/>
<ellipse cx="2.1257" cy="2.34682" rx="2.1257" ry="2.34682" transform="matrix(0.999904 0.0138569 -0.0131707 0.999913 62.2314 12.8866)" fill="#E1E1E1"/>
<ellipse cx="10.868" cy="15.6575" rx="10.868" ry="15.6575" transform="matrix(0.999904 0.0138569 -0.0131707 0.999913 83.4111 0.734131)" fill="white"/>
<ellipse cx="8.51814" cy="12.2721" rx="8.51814" ry="12.2721" transform="matrix(0.999904 0.0138569 -0.0131707 0.999913 85.7163 4.15186)" fill="#6C6C6C"/>
<ellipse cx="2.1257" cy="2.34682" rx="2.1257" ry="2.34682" transform="matrix(0.999904 0.0138569 -0.0131707 0.999913 89.2305 11.8871)" fill="#E1E1E1"/>
<ellipse cx="10.868" cy="15.6575" rx="10.868" ry="15.6575" transform="matrix(0.999904 0.0138569 -0.0131707 0.999913 109.412 0.734131)" fill="white"/>
<ellipse cx="8.51814" cy="12.2721" rx="8.51814" ry="12.2721" transform="matrix(0.999904 0.0138569 -0.0131707 0.999913 111.717 4.15186)" fill="#6C6C6C"/>
<ellipse cx="2.1257" cy="2.34682" rx="2.1257" ry="2.34682" transform="matrix(0.999904 0.0138569 -0.0131707 0.999913 115.231 11.8871)" fill="#E1E1E1"/>
<ellipse cx="10.868" cy="15.6575" rx="10.868" ry="15.6575" transform="matrix(0.999904 0.0138569 -0.0131707 0.999913 0.412598 1)" fill="white"/>
<ellipse cx="8.51814" cy="12.2721" rx="8.51814" ry="12.2721" transform="matrix(0.999904 0.0138569 -0.0131707 0.999913 2.71777 4.41772)" fill="#1DB954"/>
<ellipse cx="2.1257" cy="2.34682" rx="2.1257" ry="2.34682" transform="matrix(0.999904 0.0138569 -0.0131707 0.999913 6.23193 12.153)" fill="#E1E1E1"/>
<ellipse cx="10.868" cy="15.6575" rx="10.868" ry="15.6575" transform="matrix(0.999904 0.0138569 -0.0131707 0.999913 29.4126 1)" fill="white"/>
<ellipse cx="8.51814" cy="12.2721" rx="8.51814" ry="12.2721" transform="matrix(0.999904 0.0138569 -0.0131707 0.999913 31.7178 4.41772)" fill="#1DB954"/>
<ellipse cx="2.1257" cy="2.34682" rx="2.1257" ry="2.34682" transform="matrix(0.999904 0.0138569 -0.0131707 0.999913 35.2319 12.153)" fill="#E1E1E1"/>
</svg>
