<svg width="44" height="45" viewBox="0 0 44 45" fill="none" xmlns="http://www.w3.org/2000/svg">
<circle cx="22" cy="22.5" r="22" fill="#D9D9D9"/>
<mask id="mask0_16_51" style="mask-type:alpha" maskUnits="userSpaceOnUse" x="5" y="6" width="34" height="33">
<rect x="5.5" y="6" width="33" height="33" fill="#D9D9D9"/>
</mask>
<g mask="url(#mask0_16_51)">
<path d="M13.5437 29.5125C14.7125 28.6187 16.0187 27.9138 17.4625 27.3978C18.9062 26.8826 20.4187 26.625 22 26.625C23.5813 26.625 25.0938 26.8826 26.5375 27.3978C27.9813 27.9138 29.2875 28.6187 30.4562 29.5125C31.2583 28.5729 31.883 27.5073 32.3304 26.3156C32.7768 25.124 33 23.8521 33 22.5C33 19.4521 31.9289 16.8565 29.7866 14.7134C27.6435 12.5711 25.0479 11.5 22 11.5C18.9521 11.5 16.357 12.5711 14.2147 14.7134C12.0716 16.8565 11 19.4521 11 22.5C11 23.8521 11.2237 25.124 11.671 26.3156C12.1174 27.5073 12.7417 28.5729 13.5437 29.5125ZM22 23.875C20.6479 23.875 19.5076 23.4112 18.579 22.4835C17.6513 21.5549 17.1875 20.4146 17.1875 19.0625C17.1875 17.7104 17.6513 16.5701 18.579 15.6415C19.5076 14.7138 20.6479 14.25 22 14.25C23.3521 14.25 24.4924 14.7138 25.421 15.6415C26.3487 16.5701 26.8125 17.7104 26.8125 19.0625C26.8125 20.4146 26.3487 21.5549 25.421 22.4835C24.4924 23.4112 23.3521 23.875 22 23.875ZM22 36.25C20.0979 36.25 18.3104 35.8888 16.6375 35.1665C14.9646 34.4451 13.5094 33.4656 12.2719 32.2281C11.0344 30.9906 10.0549 29.5354 9.3335 27.8625C8.61117 26.1896 8.25 24.4021 8.25 22.5C8.25 20.5979 8.61117 18.8104 9.3335 17.1375C10.0549 15.4646 11.0344 14.0094 12.2719 12.7719C13.5094 11.5344 14.9646 10.5545 16.6375 9.83212C18.3104 9.11071 20.0979 8.75 22 8.75C23.9021 8.75 25.6896 9.11071 27.3625 9.83212C29.0354 10.5545 30.4906 11.5344 31.7281 12.7719C32.9656 14.0094 33.9451 15.4646 34.6665 17.1375C35.3888 18.8104 35.75 20.5979 35.75 22.5C35.75 24.4021 35.3888 26.1896 34.6665 27.8625C33.9451 29.5354 32.9656 30.9906 31.7281 32.2281C30.4906 33.4656 29.0354 34.4451 27.3625 35.1665C25.6896 35.8888 23.9021 36.25 22 36.25ZM22 33.5C23.2146 33.5 24.3604 33.3226 25.4375 32.9679C26.5146 32.6122 27.5 32.1021 28.3937 31.4375C27.5 30.7729 26.5146 30.2628 25.4375 29.9071C24.3604 29.5524 23.2146 29.375 22 29.375C20.7854 29.375 19.6396 29.5524 18.5625 29.9071C17.4854 30.2628 16.5 30.7729 15.6062 31.4375C16.5 32.1021 17.4854 32.6122 18.5625 32.9679C19.6396 33.3226 20.7854 33.5 22 33.5ZM22 21.125C22.5958 21.125 23.0885 20.9302 23.4781 20.5406C23.8677 20.151 24.0625 19.6583 24.0625 19.0625C24.0625 18.4667 23.8677 17.974 23.4781 17.5844C23.0885 17.1948 22.5958 17 22 17C21.4042 17 20.9115 17.1948 20.5219 17.5844C20.1323 17.974 19.9375 18.4667 19.9375 19.0625C19.9375 19.6583 20.1323 20.151 20.5219 20.5406C20.9115 20.9302 21.4042 21.125 22 21.125Z" fill="#1C1B1F"/>
</g>
</svg>
