<svg width="133" height="33" viewBox="0 0 133 33" fill="none" xmlns="http://www.w3.org/2000/svg">
<ellipse cx="10.868" cy="15.6575" rx="10.868" ry="15.6575" transform="matrix(0.999904 0.0138569 -0.0131707 0.999913 0.412598 0.265869)" fill="white"/>
<ellipse cx="8.51814" cy="12.2721" rx="8.51814" ry="12.2721" transform="matrix(0.999904 0.0138569 -0.0131707 0.999913 2.71777 3.68359)" fill="#1DB954"/>
<ellipse cx="2.1257" cy="2.34682" rx="2.1257" ry="2.34682" transform="matrix(0.999904 0.0138569 -0.0131707 0.999913 6.23193 11.4188)" fill="#E1E1E1"/>
<ellipse cx="10.868" cy="15.6575" rx="10.868" ry="15.6575" transform="matrix(0.999904 0.0138569 -0.0131707 0.999913 29.4126 0.265869)" fill="white"/>
<ellipse cx="8.51814" cy="12.2721" rx="8.51814" ry="12.2721" transform="matrix(0.999904 0.0138569 -0.0131707 0.999913 31.7178 3.68359)" fill="#1DB954"/>
<ellipse cx="2.1257" cy="2.34682" rx="2.1257" ry="2.34682" transform="matrix(0.999904 0.0138569 -0.0131707 0.999913 35.2319 11.4188)" fill="#E1E1E1"/>
<ellipse cx="10.868" cy="15.6575" rx="10.868" ry="15.6575" transform="matrix(0.999904 0.0138569 -0.0131707 0.999913 56.4126 0.265869)" fill="white"/>
<ellipse cx="8.51814" cy="12.2721" rx="8.51814" ry="12.2721" transform="matrix(0.999904 0.0138569 -0.0131707 0.999913 58.7178 3.68359)" fill="#1DB954"/>
<ellipse cx="2.1257" cy="2.34682" rx="2.1257" ry="2.34682" transform="matrix(0.999904 0.0138569 -0.0131707 0.999913 62.2319 11.4188)" fill="#E1E1E1"/>
<ellipse cx="10.868" cy="15.6575" rx="10.868" ry="15.6575" transform="matrix(0.999904 0.0138569 -0.0131707 0.999913 83.4126 0.639771)" fill="white"/>
<ellipse cx="8.51814" cy="12.2721" rx="8.51814" ry="12.2721" transform="matrix(0.999904 0.0138569 -0.0131707 0.999913 85.7178 4.0575)" fill="#1DB954"/>
<ellipse cx="2.1257" cy="2.34682" rx="2.1257" ry="2.34682" transform="matrix(0.999904 0.0138569 -0.0131707 0.999913 89.2314 11.7927)" fill="#E1E1E1"/>
<ellipse cx="10.868" cy="15.6575" rx="10.868" ry="15.6575" transform="matrix(0.999904 0.0138569 -0.0131707 0.999913 110.412 0)" fill="white"/>
<ellipse cx="8.51814" cy="12.2721" rx="8.51814" ry="12.2721" transform="matrix(0.999904 0.0138569 -0.0131707 0.999913 112.717 3.41772)" fill="#1DB954"/>
<ellipse cx="2.1257" cy="2.34682" rx="2.1257" ry="2.34682" transform="matrix(0.999904 0.0138569 -0.0131707 0.999913 116.231 11.153)" fill="#E1E1E1"/>
</svg>
